<svg xmlns="http://www.w3.org/2000/svg" version="1.1" xmlns:xlink="http://www.w3.org/1999/xlink" width="1500" height="1500" viewBox="0 0 1500 1500"><rect width="1500" height="1500" x="0" y="0" id="background" stroke="transparent" fill="#051726"></rect><svg xml:space="preserve" width="1000" height="1000" data-version="2" data-id="lg_dEbx2dK5yHK7rjK7wM" viewBox="0 0 359 407" x="250" y="250"><rect width="100%" height="100%" fill="transparent"></rect><path fill="#fff" d="M343.905 217.906c-2.03 2.047-153.025 177.406-153.236 177.516l-.037-.073c-3.503 1.979-7.512 3.227-11.828 3.227a23.84 23.84 0 0 1-23.825-23.848c0-8.512 4.527-15.974 11.235-20.17l-.013-.05 132.643-153.302L166.201 47.901l.013-.055A23.802 23.802 0 0 1 154.98 27.68a23.834 23.834 0 0 1 23.824-23.85c4.316 0 8.325 1.25 11.828 3.247l.037-.092c.21.105 151.207 175.469 153.236 177.516a23.463 23.463 0 0 1 0 33.404"></path><path fill="#fff" d="M192.44 217.906c-2.024 2.047-153.025 177.406-153.231 177.516l-.055-.073a23.88 23.88 0 0 1-11.81 3.227 23.798 23.798 0 0 1-12.59-44.018l-.018-.05 132.649-153.302-132.649-153.3.018-.056A23.789 23.789 0 0 1 3.52 27.684 23.834 23.834 0 0 1 27.344 3.836c4.316 0 8.32 1.249 11.81 3.246l.055-.092c.206.106 151.207 175.47 153.232 177.517a23.463 23.463 0 0 1 0 33.399"></path><path d="m74.84 92 8.874-7.715 1.175 1.35-8.875 7.716Z"></path><rect width="1.79" height="11.76" x="-.9" y="-5.88" fill="none" rx="0" ry="0" transform="rotate(49 -58.32 132.32)"></rect><path d="m78.966 96.747 7.698-6.692-1.975-2.272 1.177-1.023 5.138 5.909-1.178 1.023-1.994-2.294-7.698 6.692Z"></path><rect width="7.83" height="11.76" x="-3.92" y="-5.88" fill="none" rx="0" ry="0" transform="rotate(49 -61.47 139.23)"></rect><path d="m83.007 101.396 8.875-7.716 3.379 3.886-1.177 1.024-2.211-2.543-2.453 2.132 1.785 2.053-1.208 1.05-1.785-2.053-2.837 2.467 2.559 2.943-1.2 1.043Z"></path><rect width="5.68" height="11.76" x="-2.84" y="-5.88" fill="none" rx="0" ry="0" transform="rotate(49 -65.52 148.12)"></rect><path d="m87.921 107.048 8.875-7.716 1.752 2.015q.59.68 1.013 1.425.416.752.533 1.512.116.773-.156 1.513-.264.747-1.02 1.403-.882.768-1.9.923-1.003.157-2.078-.379l-1.816 5.289-1.351-1.555 1.803-4.708q-.185-.197-.448-.485t-.434-.484l-.295-.34-3.336 2.9Zm5.58-2.545.747.86q.578.665 1.091.92.52.264.975.253.447-.004.822-.198.375-.193.64-.423.588-.512.699-1.085.11-.574-.152-1.18t-.8-1.226l-.702-.807Z"></path><rect width="7.93" height="11.76" x="-3.96" y="-5.88" fill="none" rx="0" ry="0" transform="rotate(49 -69.83 157.57)"></rect><path d="m105.977 109.863.111.128-5.17 12.008-1.358-1.562 1.08-2.278-3.536-4.068-2.406.754-1.312-1.51Zm-2.521 2.298-1.674.513-2.99.904 2.605 2.996 1.316-2.814.762-1.577Z"></path><rect width="11.48" height="11.78" x="-5.74" y="-5.89" fill="none" rx="0" ry="0" transform="rotate(49 -74.87 168.66)"></rect><path d="m102.408 123.712 7.697-6.692-1.975-2.272 1.178-1.023 5.13 5.901-1.177 1.024-1.994-2.294-7.698 6.692Z"></path><rect width="7.82" height="11.76" x="-3.91" y="-5.88" fill="none" rx="0" ry="0" transform="rotate(49 -79.34 178.43)"></rect><path d="m106.541 128.467 8.875-7.716 1.174 1.35-8.875 7.716Z"></path><rect width="1.79" height="11.76" x="-.9" y="-5.88" fill="none" rx="0" ry="0" transform="rotate(49 -82.48 185.34)"></rect><path d="m114.952 138.142 1.237-10.191-.934.877-4.784 4.16-1.181-1.359 8.89-7.728.15.173-1.284 10.273.972-.924 4.792-4.166 1.174 1.35-8.875 7.716Z"></path><rect width="8.87" height="11.78" x="-4.43" y="-5.89" fill="none" rx="0" ry="0" transform="rotate(49 -86.34 193.82)"></rect><path d="M120.19 144.413q-.865-.997-1.245-2.15-.382-1.14-.287-2.296.094-1.141.658-2.215.564-1.073 1.553-1.933.974-.846 2.085-1.23 1.118-.375 2.26-.28 1.135.086 2.202.642 1.066.557 1.94 1.56.681.785 1.044 1.477.355.698.499 1.183.129.484.116.668l-1.591.455q-.004-.142-.076-.53-.08-.38-.353-.939-.273-.557-.89-1.267-.86-.988-1.9-1.316-1.04-.328-2.086-.068-1.052.253-1.935 1.02-1.027.892-1.457 1.982-.432 1.104-.26 2.2.185 1.098.973 2.004.446.513 1.054.938.594.425 1.232.519l1.714-1.49-1.582-1.818 1.246-1.083 2.749 3.162-3.48 3.025q-.853.04-1.979-.479-1.14-.519-2.203-1.741"></path><rect width="10.46" height="12.1" x="-5.23" y="-6.05" fill="none" rx="0" ry="0" transform="rotate(49 -92.12 206.5)"></rect><path d="m128.564 153.802 7.698-6.692-1.975-2.272 1.177-1.023 5.137 5.909-1.177 1.023-1.994-2.294-7.698 6.692Z"></path><rect width="7.83" height="11.76" x="-3.92" y="-5.88" fill="none" rx="0" ry="0" transform="rotate(49 -99.28 222.18)"></rect><path d="m132.606 158.45 8.875-7.715 1.174 1.35-3.622 3.15 2.722 3.132 3.623-3.15 1.174 1.352-8.875 7.715-1.174-1.35 4.12-3.583-2.722-3.132-4.121 3.582Z"></path><rect width="7.73" height="11.76" x="-3.87" y="-5.88" fill="none" rx="0" ry="0" transform="rotate(49 -103.84 232.19)"></rect><path d="m139.199 166.035 8.875-7.716 1.751 2.015q.59.68 1.014 1.425.415.752.532 1.511.116.774-.155 1.513-.265.747-1.02 1.404-.883.767-1.9.923-1.004.157-2.079-.38l-1.815 5.29-1.352-1.555 1.803-4.709q-.184-.197-.448-.484t-.434-.484l-.295-.34-3.336 2.9Zm5.579-2.545.748.86q.577.664 1.09.92.521.263.976.253.446-.005.821-.198.375-.194.64-.423.588-.512.7-1.086.11-.573-.152-1.18t-.8-1.225l-.703-.808Z"></path><rect width="7.93" height="11.76" x="-3.96" y="-5.88" fill="none" rx="0" ry="0" transform="rotate(49 -108.91 243.32)"></rect><path d="M148.913 177.452q-.787-.905-1.166-1.98-.385-1.084-.32-2.213.058-1.138.595-2.227.537-1.09 1.6-2.015 1.072-.931 2.226-1.312t2.288-.28q1.133.115 2.138.646 1.011.539 1.785 1.43t1.167 1.966q.386 1.07.342 2.208-.058 1.137-.595 2.226-.537 1.09-1.608 2.021-1.064.925-2.218 1.306-1.154.38-2.288.28-1.127-.094-2.146-.626-1.013-.524-1.8-1.43m1.222-1.063q.716.823 1.697 1.175.982.352 2.09.118 1.094-.236 2.181-1.18 1.102-.958 1.487-2.009.386-1.064.173-2.072-.22-1.014-.941-1.845-.722-.83-1.696-1.188-.968-.352-2.076-.117-1.094.235-2.196 1.193-1.087.945-1.459 2.01-.38 1.073-.167 2.094.212 1.021.907 1.821"></path><rect width="11.8" height="12.12" x="-5.9" y="-6.06" fill="none" rx="0" ry="0" transform="rotate(49 -114.4 255.43)"></rect><path d="M156.733 186.448q-1.01-1.162-1.139-2.27-.135-1.101.485-2.17.614-1.078 1.821-2.128l5.08-4.415 1.174 1.35-5.102 4.436q-1.419 1.233-1.648 2.189-.238.961.59 1.912.826.95 1.782.862.963-.096 2.412-1.356l5.102-4.435 1.188 1.366-5.08 4.416q-1.863 1.62-3.559 1.743-1.702.115-3.106-1.5"></path><rect width="8.38" height="11.92" x="-4.19" y="-5.96" fill="none" rx="0" ry="0" transform="rotate(49 -120.47 268.46)"></rect><path d="M164.626 195.526q-.873-1.003-1.247-2.15-.38-1.139-.286-2.295.088-1.149.652-2.222.564-1.074 1.552-1.933.974-.847 2.092-1.222 1.118-.376 2.26-.282 1.135.087 2.202.643 1.066.557 1.939 1.56.682.785 1.045 1.477.355.698.499 1.183.129.484.116.667l-1.591.456q-.011-.15-.077-.53-.08-.38-.352-.939-.273-.557-.89-1.267-.86-.988-1.9-1.316-1.04-.328-2.092-.076-1.046.26-1.93 1.028-1.026.892-1.456 1.982-.432 1.104-.26 2.2.179 1.09.966 1.996.453.52 1.054.939.601.431 1.24.526l1.713-1.49-1.582-1.818 1.246-1.083 2.749 3.162-3.48 3.025q-.853.04-1.986-.486-1.133-.512-2.196-1.735"></path><rect width="10.47" height="12.1" x="-5.24" y="-6.05" fill="none" rx="0" ry="0" transform="rotate(49 -125.98 280.8)"></rect><path d="m168.945 200.252 8.875-7.716 1.174 1.351-3.622 3.15 2.723 3.131 3.622-3.149 1.175 1.351-8.875 7.716-1.175-1.351 4.12-3.582-2.722-3.132-4.12 3.582Z"></path><rect width="7.73" height="11.76" x="-3.87" y="-5.88" fill="none" rx="0" ry="0" transform="rotate(49 -131.54 292.96)"></rect><path d="m213.671 324.473.118-.136 12.604 3.458-1.352 1.554-2.398-.747-3.536 4.068 1.073 2.271-1.313 1.51Zm2.626 2.177.748 1.578 1.311 2.836 2.605-2.996-2.969-.898-1.675-.543Z"></path><rect width="11.47" height="11.78" x="-5.74" y="-5.89" fill="none" rx="0" ry="0" transform="rotate(-49 469.54 -76.07)"></rect><path d="m227.003 327.093-8.875-7.716 1.752-2.015q.59-.68 1.277-1.195.68-.522 1.423-.737.743-.23 1.513-.064.776.159 1.538.822.883.767 1.172 1.746.294.972-.073 2.11l5.482 1.057-1.358 1.562-4.913-1.131q-.162.217-.41.518l-.722.83 3.336 2.9Zm-3.288-5.165.748-.86q.577-.664.758-1.223.181-.544.115-.986-.074-.448-.318-.793-.23-.345-.5-.581-.59-.512-1.173-.542-.576-.024-1.147.328-.564.344-1.095.955l-.709.815Z"></path><rect width="7.94" height="11.76" x="-3.97" y="-5.88" fill="none" rx="0" ry="0" transform="rotate(-49 464.23 -87.75)"></rect><path d="m234.509 318.46-7.69-6.686-1.975 2.271-1.185-1.03 5.137-5.909 1.185 1.03-1.994 2.294 7.69 6.686Z"></path><rect width="7.83" height="11.76" x="-3.92" y="-5.88" fill="none" rx="0" ry="0" transform="rotate(-49 460.05 -96.94)"></rect><path d="m238.641 313.704-8.875-7.715 1.181-1.359 8.875 7.716Z"></path><rect width="1.8" height="11.76" x="-.9" y="-5.88" fill="none" rx="0" ry="0" transform="rotate(-49 456.9 -103.84)"></rect><path d="m241.397 310.535-8.875-7.716 3.621-4.166 1.17 1.017-2.46 2.83 2.513 2.185 1.91-2.196 1.184 1.03-1.91 2.196 4.008 3.484Z"></path><rect width="5.52" height="11.76" x="-2.76" y="-5.88" fill="none" rx="0" ry="0" transform="rotate(-49 453.87 -110.5)"></rect><path d="m246.16 305.056-8.875-7.716 1.174-1.35 8.875 7.715Z"></path><rect width="1.79" height="11.76" x="-.9" y="-5.88" fill="none" rx="0" ry="0" transform="rotate(-49 451.17 -116.41)"></rect><path d="M252.614 297.8q-.925 1.064-2.003 1.572-1.084.515-2.216.538-1.133.022-2.204-.392-1.07-.415-1.984-1.208-1.004-.873-1.553-1.933-.541-1.054-.627-2.19-.087-1.135.303-2.253.388-1.133 1.255-2.13.57-.656 1.138-1.05.576-.388 1.024-.568.447-.194.617-.192l.69 1.646q-.57.075-1.164.393t-1.152.96q-.722.83-.898 1.856-.177 1.026.237 2.074.406 1.042 1.432 1.935.906.787 1.94 1.09 1.043.31 2.06.04 1.015-.269 1.835-1.212.453-.52.75-1.137.29-.623.431-1.44l1.495.597q.006.283-.156.804-.163.508-.477 1.097-.32.582-.773 1.103"></path><rect width="9.2" height="12.06" x="-4.6" y="-6.03" fill="none" rx="0" ry="0" transform="rotate(-49 447.37 -124.64)"></rect><path d="m255.935 293.812-8.875-7.716 1.175-1.351 8.875 7.716Z"></path><rect width="1.79" height="11.76" x="-.9" y="-5.88" fill="none" rx="0" ry="0" transform="rotate(-49 443.72 -132.76)"></rect><path d="m252.608 279.682.112-.128 12.61 3.45-1.358 1.562-2.398-.747-3.537 4.068 1.073 2.271-1.312 1.51Zm2.626 2.177.742 1.586 1.311 2.836 2.605-2.996-2.963-.906-1.675-.542Z"></path><rect width="11.48" height="11.78" x="-5.74" y="-5.89" fill="none" rx="0" ry="0" transform="rotate(-49 439.87 -141.19)"></rect><path d="m265.934 282.31-8.875-7.716 1.187-1.366 7.668 6.666 2.217-2.551 1.208 1.05Z"></path><rect width="5.19" height="11.76" x="-2.6" y="-5.88" fill="none" rx="0" ry="0" transform="rotate(-49 435.25 -151.34)"></rect><path d="m273.176 273.978-8.875-7.715 1.181-1.359 8.875 7.716Z"></path><rect width="1.8" height="11.76" x="-.9" y="-5.88" fill="none" rx="0" ry="0" transform="rotate(-49 430.57 -161.6)"></rect><path d="m281.587 264.303-10.264.193.999.802 4.784 4.16-1.174 1.35-8.89-7.728.144-.166 10.36-.15-1.058-.84-4.792-4.167 1.174-1.35 8.875 7.715Z"></path><rect width="8.86" height="11.78" x="-4.43" y="-5.89" fill="none" rx="0" ry="0" transform="rotate(-49 426.7 -170.07)"></rect><path d="m284.612 260.823-7.69-6.685-1.975 2.271-1.185-1.03 5.13-5.901 1.185 1.03-1.994 2.294 7.69 6.686Z"></path><rect width="7.82" height="11.76" x="-3.91" y="-5.88" fill="none" rx="0" ry="0" transform="rotate(-49 421.86 -180.72)"></rect><path d="m288.653 256.175-8.875-7.716 3.378-3.886 1.185 1.03-2.217 2.55 2.452 2.133 1.785-2.053 1.207 1.05-1.784 2.053 2.837 2.467 2.566-2.951 1.192 1.036Z"></path><rect width="5.68" height="11.76" x="-2.84" y="-5.88" fill="none" rx="0" ry="0" transform="rotate(-49 417.8 -189.6)"></rect><path d="m293.567 250.523-8.875-7.716 1.18-1.359 7.668 6.666 2.218-2.55 1.207 1.05Z"></path><rect width="5.18" height="11.76" x="-2.59" y="-5.88" fill="none" rx="0" ry="0" transform="rotate(-49 414.19 -197.55)"></rect><path d="m297.87 245.572-8.874-7.716 1.18-1.358 7.668 6.666 2.218-2.551 1.207 1.05Z"></path><rect width="5.18" height="11.76" x="-2.59" y="-5.88" fill="none" rx="0" ry="0" transform="rotate(-49 410.9 -204.75)"></rect><path d="m302.233 240.553-8.875-7.716 1.175-1.351 8.875 7.716Z"></path><rect width="1.79" height="11.76" x="-.9" y="-5.88" fill="none" rx="0" ry="0" transform="rotate(-49 408.43 -210.19)"></rect><path d="M308.823 233.217q-.873 1.003-1.948 1.54-1.083.529-2.234.602-1.158.067-2.291-.336-1.142-.41-2.13-1.269-.982-.853-1.509-1.908t-.6-2.19q-.065-1.144.337-2.278.403-1.134 1.276-2.138.682-.785 1.324-1.234.635-.455 1.096-.65.46-.21.644-.222l.673 1.526q-.147.017-.514.15-.36.124-.874.472-.514.347-1.138 1.064-.86.989-1.047 2.058-.173 1.069.223 2.076.397 1.007 1.28 1.775 1.026.892 2.18 1.166 1.146.281 2.207-.055 1.054-.33 1.842-1.235.452-.52.79-1.168.33-.654.349-1.3l-1.721-1.496-1.588 1.826-1.238-1.076 2.75-3.162 3.471 3.018q.172.839-.191 2.034-.363 1.195-1.42 2.41"></path><rect width="10.46" height="12.1" x="-5.23" y="-6.05" fill="none" rx="0" ry="0" transform="rotate(-49 404.35 -219.12)"></rect><path d="m312.9 228.281-8.875-7.715 3.379-3.887 1.185 1.03-2.218 2.551 2.453 2.132 1.784-2.052 1.208 1.05-1.785 2.052 2.838 2.467 2.565-2.95 1.192 1.036Z"></path><rect width="5.68" height="11.76" x="-2.84" y="-5.88" fill="none" rx="0" ry="0" transform="rotate(-49 399.33 -230.16)"></rect><path d="m323.47 216.124-10.265.192.999.802 4.784 4.16-1.174 1.35-8.89-7.728.144-.166 10.36-.15-1.058-.84-4.792-4.166 1.174-1.351 8.875 7.715Z"></path><rect width="8.86" height="11.78" x="-4.43" y="-5.89" fill="none" rx="0" ry="0" transform="rotate(-49 394.77 -240.12)"></rect><path d="M328.821 210.136q-.925 1.064-2.002 1.571-1.084.516-2.217.538-1.133.023-2.203-.392-1.071-.414-1.985-1.208-1.003-.872-1.552-1.933-.542-1.054-.628-2.189-.087-1.135.303-2.254.389-1.133 1.255-2.129.57-.656 1.138-1.05.576-.388 1.024-.568.447-.194.617-.192l.69 1.646q-.57.075-1.164.393t-1.152.96q-.722.83-.898 1.855-.176 1.026.237 2.075.406 1.042 1.432 1.934.906.788 1.94 1.09 1.043.31 2.06.041 1.015-.27 1.836-1.212.452-.521.75-1.137.289-.623.43-1.441l1.495.597q.006.283-.156.805-.163.508-.476 1.097-.321.582-.774 1.103"></path><rect width="9.2" height="12.06" x="-4.6" y="-6.03" fill="none" rx="0" ry="0" transform="rotate(-49 389.28 -252.08)"></rect><path d="m332.038 206.268-8.875-7.716 3.38-3.887 1.184 1.03-2.218 2.551 2.453 2.132 1.785-2.052 1.207 1.05-1.785 2.052 2.838 2.467 2.565-2.95 1.193 1.036Z"></path><rect width="5.68" height="11.76" x="-2.84" y="-5.88" fill="none" rx="0" ry="0" transform="rotate(-49 384.74 -262.16)"></rect></svg></svg>